<svg xmlns="http://www.w3.org/2000/svg" width="960" height="460" viewBox="0 0 960 460" role="img" aria-labelledby="title description">
  <title id="title">Lidless — Крышка открыта, экран выключен</title>
  <desc id="description">Концептуальная иллюстрация проекта: внешний монитор работает, а встроенный экран MacBook выключен.</desc>
  <rect width="960" height="460" rx="28" fill="#eff2f3"/>
  <g font-family="-apple-system, BlinkMacSystemFont, 'Segoe UI', Arial, sans-serif">
    <text x="44" y="64" fill="#52675b" font-size="30">Lidless</text>
    <text x="40" y="167" fill="#34453d" font-size="62" font-weight="650" letter-spacing="-1.2">Крышка открыта,</text>
    <text x="40" y="242" fill="#34453d" font-size="62" font-weight="650" letter-spacing="-1.2">экран выключен</text>
    <text x="44" y="389" fill="#52675b" font-size="30">Строка меню macOS · Swift</text>
  </g>
  <g transform="translate(628 70)">
    <circle cx="132" cy="146" r="130" fill="#e1e7e9"/>
    <rect x="34" y="14" width="206" height="136" rx="16" fill="#fafaf6"/>
    <path d="M60 50h98M60 78h128M60 106h84" fill="none" stroke="#b2c4aa" stroke-width="10" stroke-linecap="round"/>
    <path d="M128 150v26" stroke="#c3ccd0" stroke-width="10" stroke-linecap="round"/>
    <path d="M100 178h56" stroke="#c3ccd0" stroke-width="8" stroke-linecap="round"/>
    <rect x="18" y="160" width="150" height="92" rx="12" fill="#2f3d36"/>
    <rect x="4" y="252" width="178" height="14" rx="7" fill="#b3bec3"/>
    <circle cx="198" cy="222" r="40" fill="#c9c4d8"/>
    <path d="M211 205a22 22 0 1 0 5 32 18 18 0 0 1-5-32Z" fill="#f2cf6b"/>
  </g>
</svg>
